<?xml version="1.0" encoding="UTF-8"?>
<svg id="Layer_1" data-name="Layer 1" xmlns="http://www.w3.org/2000/svg" viewBox="0 0 2100 1308.54">
  <defs>
    <style>
      .cls-1 {
        fill: #93c88d;
      }

      .cls-2 {
        fill: #116549;
      }

      .cls-3 {
        fill: #10916a;
      }
    </style>
  </defs>
  <g>
    <path class="cls-2" d="M1013.34,516.57l17.92-35.02h.67l17.92,35.02h-7.28l-2.73-5.51h-16.53l-2.68,5.51h-7.28ZM1026.56,505.22h10.01l-4.98-10.59-5.03,10.59Z"/>
    <path class="cls-2" d="M1086.78,482.36l-19.55,27.98h18.88v6.23h-30.66v-.77l19.59-28.07h-18.11v-6.18h29.85v.82Z"/>
    <path class="cls-2" d="M1103.88,516.57h-6.71v-35.02h6.71v35.02Z"/>
    <path class="cls-2" d="M1123.53,487.44v8.77h16.96v6.08h-16.96v8.24h19.12v6.04h-25.82v-35.07h25.82v5.94h-19.12Z"/>
    <path class="cls-2" d="M1183.6,516.57l-23.05-20.84v20.84h-6.71v-35.02h.72l23.04,21.18v-21.18h6.71v35.02h-.72Z"/>
    <path class="cls-2" d="M1210.12,516.57h-13.83v-35.07h13.83c5.01,0,9.12,1.47,12.34,4.41,1.72,1.57,3.02,3.46,3.9,5.68.88,2.22,1.32,4.7,1.32,7.45s-.44,5.28-1.32,7.5c-.88,2.22-2.17,4.11-3.9,5.68-1.56,1.44-3.39,2.52-5.48,3.26-2.09.74-4.38,1.1-6.86,1.1ZM1203,510.63h7.14c1.25,0,2.51-.14,3.79-.43,1.28-.29,2.43-.85,3.47-1.7,1.04-.85,1.89-2.02,2.56-3.52s1.01-3.47,1.01-5.89-.34-4.4-1.01-5.92-1.53-2.69-2.59-3.52-2.22-1.39-3.5-1.68c-1.28-.29-2.52-.43-3.74-.43h-7.14v23.09Z"/>
    <path class="cls-2" d="M1230.98,516.57l17.92-35.02h.67l17.92,35.02h-7.28l-2.73-5.51h-16.53l-2.68,5.51h-7.28ZM1244.21,505.22h10.01l-4.98-10.59-5.03,10.59Z"/>
    <path class="cls-2" d="M1293.07,516.57l17.92-35.02h.67l17.92,35.02h-7.28l-2.73-5.51h-16.53l-2.68,5.51h-7.28ZM1306.29,505.22h10.01l-4.98-10.59-5.03,10.59Z"/>
    <path class="cls-2" d="M1369.82,497.41c-.03.67-.05,1.29-.05,1.87-.03.51-.05,1.01-.05,1.51s-.02.87-.05,1.13c-.19,2.2-.79,4.25-1.8,6.13-1.01,1.89-2.3,3.51-3.88,4.86-1.58,1.36-3.4,2.42-5.46,3.19-2.06.77-4.22,1.15-6.49,1.15-2.49,0-4.84-.48-7.04-1.44-2.2-.96-4.13-2.26-5.79-3.9-1.66-1.65-2.96-3.57-3.93-5.77-.97-2.2-1.45-4.55-1.45-7.04s.48-4.85,1.45-7.07,2.27-4.15,3.93-5.8c1.65-1.65,3.58-2.95,5.79-3.91s4.55-1.44,7.04-1.44c3.16,0,6.06.73,8.69,2.2,2.64,1.47,4.77,3.43,6.4,5.89l-5.75,3.5c-1.02-1.5-2.35-2.76-4-3.79-1.65-1.02-3.43-1.53-5.34-1.53-1.6,0-3.09.33-4.48.98-1.39.66-2.6,1.53-3.64,2.61-1.04,1.09-1.86,2.35-2.47,3.81-.61,1.45-.91,2.96-.91,4.53s.3,3.11.91,4.55c.61,1.44,1.43,2.7,2.47,3.79,1.04,1.09,2.25,1.96,3.64,2.61,1.39.65,2.88.98,4.48.98,1.21,0,2.38-.18,3.5-.55,1.12-.37,2.14-.89,3.07-1.56.93-.67,1.73-1.47,2.42-2.4.69-.93,1.19-1.95,1.51-3.07h-12.94v-6.04h20.22Z"/>
    <path class="cls-2" d="M1386.44,516.57h-6.71v-35.07h15.93c1.79,0,3.43.3,4.92.89,1.49.59,2.76,1.42,3.82,2.49,1.06,1.07,1.88,2.35,2.47,3.83.59,1.49.89,3.11.89,4.86,0,2.65-.66,4.97-1.99,6.95-1.33,1.98-3.09,3.4-5.3,4.26,2.95,3.9,5.86,7.83,8.73,11.79h-8c-1.4-1.82-2.77-3.66-4.11-5.51-1.34-1.85-2.67-3.74-4.01-5.65h-6.64v11.16ZM1386.44,499.47h9.22c.6,0,1.23-.12,1.89-.36.65-.24,1.23-.61,1.74-1.1s.93-1.11,1.27-1.84c.33-.74.5-1.6.5-2.59,0-.51-.06-1.12-.19-1.82s-.38-1.37-.76-2.01c-.38-.64-.92-1.18-1.62-1.63-.7-.45-1.64-.67-2.82-.67h-9.22v12.03Z"/>
    <path class="cls-2" d="M1426.21,516.57h-6.71v-35.02h6.71v35.02Z"/>
    <path class="cls-2" d="M1471.24,507.95c-.77,1.4-1.71,2.67-2.83,3.81-1.12,1.13-2.36,2.11-3.71,2.92-1.36.82-2.83,1.45-4.41,1.89-1.58.45-3.22.67-4.91.67-2.49,0-4.84-.48-7.04-1.44-2.2-.96-4.13-2.26-5.77-3.9-1.65-1.65-2.95-3.57-3.91-5.77-.96-2.2-1.44-4.55-1.44-7.04s.48-4.84,1.44-7.04c.96-2.2,2.26-4.13,3.91-5.77s3.57-2.95,5.77-3.9c2.2-.96,4.55-1.44,7.04-1.44,1.69,0,3.33.23,4.91.67,1.58.45,3.05,1.08,4.41,1.89,1.36.82,2.6,1.79,3.71,2.92,1.12,1.13,2.06,2.39,2.83,3.76l-6.28,2.54c-.51-.77-1.11-1.48-1.8-2.16-.69-.67-1.45-1.26-2.28-1.77-.83-.51-1.71-.91-2.64-1.2-.93-.29-1.89-.43-2.87-.43-1.6,0-3.09.33-4.48.98-1.39.66-2.6,1.53-3.62,2.61-1.02,1.09-1.84,2.35-2.44,3.81-.61,1.45-.91,2.96-.91,4.53s.3,3.11.91,4.55c.61,1.44,1.42,2.7,2.44,3.79,1.02,1.09,2.23,1.96,3.62,2.61,1.39.65,2.88.98,4.48.98.99,0,1.95-.14,2.87-.43.93-.29,1.8-.69,2.64-1.2.83-.51,1.59-1.11,2.28-1.8s1.28-1.41,1.8-2.18l6.28,2.54Z"/>
    <path class="cls-2" d="M1497.11,517.24c-2.49,0-4.84-.48-7.04-1.44-2.2-.96-4.13-2.26-5.77-3.9s-2.95-3.57-3.9-5.77c-.96-2.2-1.44-4.57-1.44-7.09s.48-4.85,1.44-7.07,2.26-4.15,3.9-5.8,3.57-2.95,5.77-3.91c2.2-.96,4.55-1.44,7.04-1.44s4.89.48,7.09,1.44c2.2.96,4.13,2.26,5.77,3.91s2.95,3.58,3.9,5.8c.96,2.22,1.44,4.57,1.44,7.07s-.48,4.89-1.44,7.09c-.96,2.2-2.26,4.13-3.9,5.77s-3.57,2.95-5.77,3.9c-2.2.96-4.57,1.44-7.09,1.44ZM1497.13,487.11c-1.59,0-3.08.33-4.47.98-1.39.66-2.6,1.53-3.63,2.61-1.04,1.09-1.86,2.35-2.46,3.81-.6,1.45-.91,2.96-.91,4.53s.3,3.11.91,4.55c.61,1.44,1.43,2.71,2.46,3.81,1.04,1.1,2.25,1.98,3.63,2.63,1.39.65,2.88.98,4.47.98s3.08-.33,4.47-.98c1.39-.65,2.6-1.53,3.63-2.63,1.04-1.1,1.86-2.37,2.46-3.81.6-1.44.91-2.95.91-4.55s-.3-3.07-.91-4.53c-.61-1.45-1.43-2.72-2.46-3.81-1.04-1.09-2.25-1.96-3.63-2.61-1.39-.65-2.88-.98-4.47-.98Z"/>
    <path class="cls-2" d="M1550.82,510.63v5.94h-25.25v-35.07h6.71v29.13h18.54Z"/>
    <path class="cls-2" d="M1555.8,516.57l17.92-35.02h.67l17.92,35.02h-7.28l-2.73-5.51h-16.53l-2.68,5.51h-7.28ZM1569.02,505.22h10.01l-4.98-10.59-5.03,10.59Z"/>
  </g>
  <g>
    <path class="cls-2" d="M1071.96,760.31c-.05,1.08-.08,2.08-.08,3-.05.82-.08,1.63-.08,2.42s-.03,1.4-.08,1.81c-.31,3.54-1.27,6.82-2.88,9.84-1.62,3.03-3.69,5.63-6.23,7.8-2.54,2.18-5.46,3.88-8.77,5.12-3.31,1.23-6.78,1.84-10.42,1.84-4,0-7.77-.77-11.31-2.31s-6.63-3.63-9.29-6.27c-2.66-2.64-4.76-5.73-6.31-9.27-1.55-3.54-2.32-7.31-2.32-11.31s.77-7.78,2.32-11.34c1.55-3.56,3.65-6.67,6.31-9.31,2.65-2.64,5.75-4.73,9.29-6.27s7.31-2.31,11.31-2.31c5.08,0,9.73,1.18,13.96,3.54s7.65,5.51,10.27,9.46l-9.23,5.61c-1.64-2.41-3.78-4.43-6.42-6.07-2.64-1.64-5.5-2.46-8.57-2.46-2.56,0-4.96.53-7.19,1.58-2.23,1.05-4.18,2.45-5.84,4.19-1.67,1.74-2.99,3.78-3.96,6.11-.97,2.33-1.46,4.76-1.46,7.27s.49,5,1.46,7.31c.97,2.31,2.29,4.33,3.96,6.08,1.67,1.74,3.62,3.14,5.84,4.19,2.23,1.05,4.63,1.58,7.19,1.58,1.95,0,3.82-.29,5.61-.88,1.79-.59,3.43-1.42,4.92-2.5,1.49-1.08,2.78-2.36,3.88-3.85,1.1-1.49,1.91-3.13,2.42-4.92h-20.76v-9.69h32.45Z"/>
    <path class="cls-2" d="M1097.88,791.07h-10.77v-56.29h25.58c2.88,0,5.51.47,7.9,1.42s4.43,2.28,6.12,4c1.69,1.72,3.02,3.77,3.97,6.15.95,2.38,1.42,4.99,1.42,7.81,0,4.26-1.07,7.97-3.2,11.15-2.13,3.18-4.97,5.46-8.51,6.84,4.73,6.26,9.4,12.56,14.02,18.92h-12.84c-2.25-2.92-4.45-5.87-6.59-8.84-2.15-2.97-4.29-6-6.44-9.07h-10.65v17.92ZM1097.88,763.62h14.79c.97,0,1.98-.19,3.03-.58s1.98-.97,2.8-1.77c.82-.79,1.49-1.78,2.03-2.96.54-1.18.8-2.56.8-4.15,0-.82-.1-1.79-.31-2.92-.2-1.13-.61-2.2-1.23-3.23-.61-1.03-1.48-1.9-2.61-2.61s-2.63-1.08-4.52-1.08h-14.79v19.3Z"/>
    <path class="cls-2" d="M1159.4,744.31v14.07h27.23v9.77h-27.23v13.23h30.69v9.69h-41.45v-56.29h41.45v9.54h-30.69Z"/>
    <path class="cls-2" d="M1218.08,744.31v14.07h27.23v9.77h-27.23v13.23h30.69v9.69h-41.45v-56.29h41.45v9.54h-30.69Z"/>
    <path class="cls-2" d="M1313.75,791.07l-36.99-33.45v33.45h-10.77v-56.22h1.15l36.99,33.99v-33.99h10.77v56.22h-1.15Z"/>
    <path class="cls-2" d="M1376.58,744.31v13.92h27.15v9.92h-27.15v22.92h-10.77v-56.29h41.37v9.54h-30.61Z"/>
    <path class="cls-2" d="M1407.42,791.07l28.76-56.22h1.08l28.76,56.22h-11.69l-4.38-8.84h-26.53l-4.31,8.84h-11.69ZM1428.65,772.85h16.07l-8-17-8.08,17Z"/>
    <path class="cls-2" d="M1486.55,791.07h-10.77v-56.29h25.58c2.88,0,5.51.47,7.9,1.42s4.43,2.28,6.12,4c1.69,1.72,3.02,3.77,3.97,6.15.95,2.38,1.42,4.99,1.42,7.81,0,4.26-1.07,7.97-3.2,11.15-2.13,3.18-4.97,5.46-8.51,6.84,4.73,6.26,9.4,12.56,14.02,18.92h-12.84c-2.25-2.92-4.45-5.87-6.59-8.84-2.15-2.97-4.29-6-6.44-9.07h-10.66v17.92ZM1486.55,763.62h14.79c.97,0,1.98-.19,3.03-.58s1.98-.97,2.8-1.77c.82-.79,1.49-1.78,2.03-2.96.54-1.18.8-2.56.8-4.15,0-.82-.1-1.79-.31-2.92-.2-1.13-.61-2.2-1.23-3.23-.61-1.03-1.48-1.9-2.61-2.61s-2.63-1.08-4.52-1.08h-14.79v19.3Z"/>
    <path class="cls-2" d="M1593.99,734.86v56.22h-10.77v-28.45l-17.61,21.15-17.54-21.15v28.45h-10.77v-56.22h.69l27.61,32.45,27.68-32.45h.69Z"/>
  </g>
  <g>
    <g>
      <path class="cls-3" d="M626.38,451.16c6.15,7.22,10.85,14.47,14.47,21.33,7.2,13.6,10,29.03,8.81,44.39-.99,12.44-1.61,25.52-1.84,39.17-.25,15.95.11,31.1.88,45.46l-51.27-51.27c-7.79-7.79-17.28-13.65-27.76-17.11-9.09-3.03-18.16-6.03-27.25-9.06-2.8-10.68-6.46-30.03-2.27-53.59,4.9-27.5,17.85-46.45,24.9-55.38,13.14,2.32,25.72,7.08,36.85,14.47,8.04,5.33,16.57,12.32,24.47,21.58Z"/>
      <path class="cls-2" d="M597.43,550.24l51.27,51.27c.62,10.93,1.47,21.41,2.52,31.36-9.94-1.05-20.42-1.9-31.36-2.52l-51.27-51.27c-7.79-7.79-13.62-17.31-17.11-27.76-3.03-9.09-6.03-18.16-9.07-27.25,9.09,3.03,18.16,6.03,27.25,9.06,10.48,3.46,19.97,9.32,27.76,17.11Z"/>
      <path class="cls-3" d="M542.42,524.07c3.03,9.09,6.03,18.16,9.07,27.25,3.48,10.45,9.32,19.97,17.11,27.76l51.27,51.27c-14.33-.79-29.52-1.13-45.44-.91-13.68.26-26.77.88-39.2,1.87-15.32,1.16-30.79-1.62-44.39-8.81-6.85-3.63-14.11-8.33-21.33-14.47-9.23-7.93-16.26-16.43-21.58-24.47-7.39-11.13-12.15-23.71-14.47-36.85,8.92-7.05,27.9-20.03,55.38-24.9,23.57-4.19,42.94-.57,53.59,2.27Z"/>
      <path class="cls-1" d="M565.05,415.1c-7.05,8.92-20,27.87-24.9,55.38-4.19,23.57-.54,42.91,2.27,53.59-10.65-2.83-30.02-6.46-53.59-2.27-27.48,4.87-46.45,17.84-55.38,24.9-.65-3.65-1.13-7.31-1.42-11.05-.93-13.06-1.27-27.56-.51-43.22,1.3-26.97,5.52-50.28,10.23-69.03,18.75-4.7,42.06-8.92,69.03-10.23,15.66-.76,30.17-.42,43.22.51,3.74.28,7.39.76,11.05,1.42Z"/>
    </g>
    <g>
      <path class="cls-3" d="M832.93,657.71c-7.22-6.15-14.47-10.85-21.33-14.47-13.6-7.2-29.03-10-44.39-8.81-12.44.99-25.52,1.61-39.17,1.84-15.95.25-31.1-.11-45.46-.88l51.27,51.27c7.79,7.79,13.65,17.28,17.11,27.76,3.03,9.09,6.03,18.16,9.06,27.25,10.68,2.8,30.03,6.46,53.59,2.27,27.5-4.9,46.45-17.85,55.38-24.9-2.32-13.14-7.08-25.72-14.47-36.85-5.33-8.04-12.32-16.57-21.58-24.47Z"/>
      <path class="cls-2" d="M733.85,686.66l-51.27-51.27c-10.93-.62-21.41-1.47-31.36-2.52,1.05,9.94,1.9,20.42,2.52,31.36l51.27,51.27c7.79,7.79,17.31,13.62,27.76,17.11,9.09,3.03,18.16,6.03,27.25,9.07-3.03-9.09-6.03-18.16-9.06-27.25-3.46-10.48-9.32-19.97-17.11-27.76Z"/>
      <path class="cls-3" d="M760.02,741.67c-9.09-3.03-18.16-6.03-27.25-9.07-10.45-3.48-19.97-9.32-27.76-17.11l-51.27-51.27c.79,14.33,1.13,29.52.91,45.44-.26,13.68-.88,26.77-1.87,39.2-1.16,15.32,1.62,30.79,8.81,44.39,3.63,6.85,8.33,14.11,14.47,21.33,7.93,9.23,16.43,16.26,24.47,21.58,11.13,7.39,23.71,12.15,36.85,14.47,7.05-8.92,20.03-27.9,24.9-55.38,4.19-23.57.57-42.94-2.27-53.59Z"/>
      <path class="cls-1" d="M868.99,719.03c-8.92,7.05-27.87,20-55.38,24.9-23.57,4.19-42.91.54-53.59-2.27,2.83,10.65,6.46,30.02,2.27,53.59-4.87,27.48-17.84,46.45-24.9,55.38,3.65.65,7.31,1.13,11.05,1.42,13.06.93,27.56,1.27,43.22.51,26.97-1.3,50.28-5.52,69.03-10.23,4.7-18.75,8.92-42.06,10.23-69.03.76-15.66.42-30.17-.51-43.22-.28-3.74-.76-7.39-1.42-11.05Z"/>
    </g>
    <g>
      <path class="cls-3" d="M832.92,608.02c-7.22,6.15-14.47,10.85-21.33,14.47-13.6,7.2-29.03,10-44.39,8.81-12.44-.99-25.52-1.61-39.17-1.84-15.95-.25-31.1.11-45.46.88l51.27-51.27c7.79-7.79,13.65-17.28,17.11-27.76,3.03-9.09,6.03-18.16,9.06-27.25,10.68-2.8,30.03-6.46,53.59-2.27,27.5,4.9,46.45,17.84,55.38,24.9-2.32,13.14-7.08,25.72-14.47,36.85-5.33,8.04-12.32,16.57-21.58,24.47Z"/>
      <path class="cls-2" d="M733.84,579.07l-51.27,51.27c-10.93.62-21.41,1.47-31.36,2.52,1.05-9.94,1.9-20.42,2.52-31.36l51.27-51.27c7.79-7.79,17.31-13.62,27.76-17.11,9.09-3.03,18.16-6.03,27.25-9.07-3.03,9.09-6.03,18.16-9.06,27.25-3.45,10.48-9.32,19.97-17.11,27.76Z"/>
      <path class="cls-3" d="M760.01,524.06c-9.09,3.03-18.16,6.03-27.25,9.07-10.45,3.48-19.97,9.32-27.76,17.11l-51.27,51.27c.79-14.33,1.13-29.52.91-45.43-.26-13.68-.88-26.77-1.87-39.2-1.16-15.32,1.61-30.79,8.81-44.39,3.63-6.85,8.33-14.11,14.47-21.33,7.93-9.23,16.43-16.26,24.47-21.58,11.13-7.39,23.71-12.15,36.85-14.47,7.05,8.92,20.03,27.9,24.9,55.38,4.19,23.57.57,42.94-2.26,53.59Z"/>
      <path class="cls-1" d="M868.98,546.69c-8.92-7.05-27.87-20-55.38-24.9-23.57-4.19-42.91-.54-53.59,2.27,2.83-10.65,6.46-30.02,2.26-53.59-4.87-27.48-17.85-46.45-24.9-55.38,3.65-.65,7.31-1.13,11.05-1.42,13.06-.94,27.56-1.27,43.22-.51,26.97,1.3,50.28,5.52,69.03,10.22,4.7,18.75,8.92,42.06,10.23,69.03.77,15.66.43,30.17-.51,43.22-.28,3.74-.76,7.39-1.42,11.05Z"/>
    </g>
    <g>
      <path class="cls-3" d="M626.37,814.57c6.15-7.22,10.85-14.47,14.47-21.33,7.2-13.6,10-29.03,8.81-44.39-.99-12.44-1.62-25.52-1.84-39.17-.25-15.95.11-31.1.88-45.46l-51.27,51.27c-7.79,7.79-17.28,13.65-27.76,17.11-9.09,3.03-18.16,6.03-27.25,9.07-2.8,10.68-6.46,30.03-2.26,53.59,4.9,27.5,17.85,46.45,24.9,55.38,13.14-2.32,25.72-7.08,36.85-14.47,8.04-5.33,16.57-12.32,24.47-21.58Z"/>
      <path class="cls-2" d="M597.42,715.49l51.27-51.27c.62-10.93,1.47-21.41,2.52-31.36-9.94,1.05-20.42,1.9-31.36,2.52l-51.27,51.27c-7.79,7.79-13.62,17.31-17.11,27.76-3.03,9.09-6.03,18.16-9.06,27.25,9.09-3.03,18.16-6.03,27.25-9.07,10.48-3.46,19.97-9.32,27.76-17.11Z"/>
      <path class="cls-3" d="M542.42,741.66c3.03-9.09,6.03-18.16,9.06-27.25,3.48-10.45,9.32-19.97,17.11-27.76l51.27-51.27c-14.33.79-29.52,1.13-45.43.91-13.68-.26-26.77-.88-39.2-1.87-15.32-1.16-30.79,1.62-44.39,8.81-6.85,3.63-14.11,8.33-21.33,14.47-9.23,7.93-16.26,16.43-21.58,24.47-7.39,11.13-12.15,23.71-14.47,36.85,8.92,7.05,27.9,20.03,55.38,24.9,23.57,4.19,42.94.57,53.59-2.27Z"/>
      <path class="cls-1" d="M565.05,850.63c-7.05-8.92-20-27.87-24.9-55.38-4.19-23.57-.54-42.91,2.26-53.59-10.65,2.83-30.02,6.46-53.59,2.27-27.48-4.87-46.45-17.84-55.38-24.9-.65,3.65-1.13,7.31-1.42,11.05-.93,13.06-1.27,27.56-.51,43.22,1.3,26.97,5.52,50.28,10.23,69.03,18.75,4.7,42.06,8.92,69.03,10.23,15.66.76,30.17.42,43.22-.51,3.74-.28,7.39-.76,11.05-1.42Z"/>
    </g>
  </g>
  <g>
    <path class="cls-3" d="M1055.82,613.17c-.11,2.13-.16,4.11-.16,5.94-.11,1.62-.16,3.22-.16,4.79s-.05,2.77-.16,3.58c-.63,7-2.59,13.5-5.88,19.48-3.29,5.99-7.52,11.14-12.7,15.45-5.17,4.32-11.13,7.69-17.87,10.12-6.74,2.43-13.82,3.65-21.24,3.65-8.15,0-15.83-1.52-23.05-4.57-7.21-3.05-13.52-7.18-18.93-12.41-5.41-5.22-9.7-11.34-12.86-18.34-3.16-7-4.74-14.46-4.74-22.37s1.58-15.4,4.74-22.45c3.16-7.05,7.44-13.19,12.86-18.42,5.41-5.22,11.72-9.36,18.93-12.41,7.21-3.04,14.89-4.57,23.05-4.57,10.35,0,19.83,2.34,28.45,7,8.62,4.67,15.6,10.91,20.93,18.72l-18.81,11.11c-3.35-4.77-7.71-8.78-13.09-12.02-5.38-3.25-11.21-4.87-17.48-4.87-5.23,0-10.11,1.04-14.66,3.12-4.55,2.08-8.52,4.85-11.91,8.29-3.4,3.45-6.09,7.49-8.07,12.1-1.99,4.62-2.98,9.41-2.98,14.38s.99,9.89,2.98,14.46c1.98,4.57,4.68,8.57,8.07,12.02,3.4,3.45,7.37,6.22,11.91,8.29,4.55,2.08,9.43,3.12,14.66,3.12,3.97,0,7.78-.58,11.44-1.75,3.66-1.17,7-2.82,10.03-4.95,3.03-2.13,5.67-4.67,7.92-7.61,2.25-2.94,3.89-6.19,4.94-9.74h-42.33v-19.18h66.16Z"/>
    <path class="cls-3" d="M1102.56,674.05h-21.95v-111.26h21.95v111.26Z"/>
    <path class="cls-3" d="M1125.57,674.05l58.63-111.26h2.19l58.63,111.26h-23.83l-8.94-17.5h-54.08l-8.78,17.5h-23.83ZM1168.84,637.97h32.77l-16.3-33.64-16.46,33.64Z"/>
    <path class="cls-3" d="M1285.54,664c0,3.15-1.12,5.81-3.37,7.99-2.25,2.18-4.99,3.27-8.23,3.27s-5.83-1.09-8.07-3.27c-2.25-2.18-3.37-4.85-3.37-7.99s1.12-5.66,3.37-7.84c2.25-2.18,4.94-3.27,8.07-3.27s5.98,1.09,8.23,3.27c2.25,2.18,3.37,4.79,3.37,7.84Z"/>
    <path class="cls-3" d="M1423.08,562.79v111.26h-21.95v-56.32l-35.9,41.86-35.74-41.86v56.32h-21.95v-111.26h1.41l56.28,64.23,56.44-64.23h1.41Z"/>
    <path class="cls-3" d="M1439.48,674.05l58.63-111.26h2.19l58.63,111.26h-23.83l-8.94-17.5h-54.08l-8.78,17.5h-23.83ZM1482.75,637.97h32.77l-16.3-33.64-16.46,33.64Z"/>
    <path class="cls-3" d="M1594.43,674.05h-21.95v-111.41h52.14c5.86,0,11.23.94,16.1,2.82,4.87,1.88,9.03,4.52,12.48,7.91,3.45,3.4,6.15,7.46,8.09,12.18,1.93,4.72,2.91,9.87,2.91,15.45,0,8.42-2.17,15.78-6.52,22.07-4.35,6.29-10.13,10.81-17.35,13.55,9.64,12.38,19.17,24.86,28.57,37.44h-26.18c-4.59-5.78-9.06-11.62-13.44-17.5-4.38-5.88-8.75-11.87-13.13-17.96h-21.72v35.46ZM1594.43,619.71h30.16c1.98,0,4.03-.38,6.17-1.14,2.14-.76,4.04-1.93,5.7-3.5,1.67-1.57,3.05-3.52,4.14-5.86,1.09-2.33,1.64-5.07,1.64-8.22,0-1.62-.21-3.55-.62-5.78-.42-2.23-1.25-4.36-2.5-6.39-1.25-2.03-3.02-3.75-5.31-5.18-2.29-1.42-5.36-2.13-9.22-2.13h-30.16v38.2Z"/>
  </g>
</svg>